<?xml version="1.0" standalone="no"?>
<!DOCTYPE svg PUBLIC "-//W3C//DTD SVG 20010904//EN"
 "http://www.w3.org/TR/2001/REC-SVG-20010904/DTD/svg10.dtd">
<svg version="1.0" xmlns="http://www.w3.org/2000/svg"
 width="1024.000000pt" height="1024.000000pt" viewBox="0 0 1024.000000 1024.000000"
 preserveAspectRatio="xMidYMid meet">
  <defs>
    <radialGradient id="0" gradientTransform="translate(-0.5 -0.10) scale(2, 1)">
      <stop offset="0%" stop-color="#0aefff"/>
      <stop offset="100%" stop-color="#1b76ff"/>
    </radialGradient>
  </defs>

<g transform="translate(0.000000,1024.000000) scale(0.100000,-0.100000)"
fill="url(#0)" stroke="none">
<path d="M4845 10034 c-1082 -69 -2050 -453 -2885 -1144 -161 -133 -477 -449
-610 -610 -645 -780 -1017 -1661 -1127 -2670 -25 -232 -25 -748 0 -980 67
-616 229 -1174 494 -1704 236 -472 516 -864 887 -1243 256 -263 492 -458 791
-657 689 -459 1427 -720 2285 -808 164 -17 716 -17 880 0 1074 110 1998 506
2796 1197 144 125 406 390 523 530 659 790 1036 1691 1143 2735 17 164 17 716
0 880 -38 373 -105 704 -207 1035 -41 130 -151 425 -164 438 -6 6 -101 -32
-238 -93 -125 -56 -233 -104 -239 -107 -6 -2 -23 27 -39 64 -95 230 -282 554
-450 780 -250 337 -599 692 -873 888 -29 20 -54 36 -56 34 -2 -2 -63 -82 -136
-177 -111 -145 -130 -176 -119 -186 8 -7 49 -41 91 -75 504 -405 920 -969
1166 -1581 311 -776 366 -1633 156 -2450 -41 -158 -138 -436 -209 -595 -445
-1004 -1292 -1778 -2325 -2125 -591 -199 -1159 -254 -1785 -174 -1277 164
-2427 993 -2994 2159 -620 1274 -517 2747 276 3925 718 1068 1947 1720 3243
1720 754 0 1524 -229 2138 -635 42 -28 43 -28 61 -9 32 32 591 763 591 771 0
5 -48 39 -108 78 -656 425 -1392 685 -2182 770 -138 15 -643 27 -775 19z"/>
<path d="M4638 7909 l-3 -294 -1202 -730 -1203 -729 0 -1006 0 -1006 633 -384
c1452 -881 2178 -1320 2224 -1346 l49 -28 228 145 c124 79 282 179 349 222 67
42 146 90 174 106 29 16 518 311 1088 657 l1035 628 0 1006 0 1006 -1202 729
-1203 730 -5 292 -5 291 -237 -144 -238 -144 -217 131 c-120 73 -228 139 -240
147 l-23 14 -2 -293z m1155 -1449 c367 -223 667 -407 667 -410 0 -3 -299 -203
-665 -445 -366 -242 -665 -442 -664 -445 0 -3 202 -128 450 -278 l450 -272
537 355 537 355 3 -337 c2 -261 -1 -340 -10 -349 -7 -6 -455 -279 -995 -607
l-983 -596 -982 596 c-541 328 -989 601 -996 607 -9 9 -12 88 -10 353 l3 340
542 -359 542 -358 450 272 c248 150 450 275 450 278 1 3 -301 205 -670 449
-451 299 -666 447 -657 452 7 5 308 188 668 408 360 219 658 398 661 398 3 -1
306 -184 672 -407z"/>
</g>
</svg>
